<svg xmlns="http://www.w3.org/2000/svg" viewBox="0 0 1920 929" preserveAspectRatio="xMidYMid" width="1920" height="929" xmlns:xlink="http://www.w3.org/1999/xlink" style="shape-rendering:auto;display:block;background-position-x:0%;background-position-y:0%;background-size:auto;background-origin:padding-box;background-clip:border-box;background:scroll rgb(26, 27, 32) none  repeat;width:1920px;height:929px;;animation:none"><g><g transform="matrix(0.9659258262890683,0.25881904510252074,-0.25881904510252074,0.9659258262890683,152.93265321261526,-139.73882808381325)" style="transform:matrix(0.965926, 0.258819, -0.258819, 0.965926, 152.933, -139.739);;animation:none"><path stroke-width="2" stroke-opacity="0" stroke="rgb(98, 82, 197)" fill="none" d="M -480 -69.5 C 0 -69.5 480 69.5 960 69.5 C 1440 69.5 1920 -69.5 2400 -69.5 C 2880 -69.5 3360 69.5 3840 69.5 C 4320 69.5 4800 -69.5 5280 -69.5" transform="matrix(1,0,0,1,0,0)" style="fill:none;stroke:rgb(98, 82, 197);transform:matrix(1, 0, 0, 1, 0, 0);;animation:none"></path></g>
<g transform="matrix(0.9659258262890683,0.25881904510252074,-0.25881904510252074,0.9659258262890683,152.93265321261526,600.9811655074953)" style="transform:matrix(0.965926, 0.258819, -0.258819, 0.965926, 152.933, 600.981);;animation:none"><path stroke-width="2" stroke-opacity="0" stroke="rgb(98, 82, 197)" fill="none" d="M -480 -69.4787 C 0 -69.4787 480 69.4787 960 69.4787 C 1440 69.4787 1920 -69.4787 2400 -69.4787 C 2880 -69.4787 3360 69.4787 3840 69.4787 C 4320 69.4787 4800 -69.4787 5280 -69.4787" transform="matrix(1,0,0,1,-15.359759330749512,0)" style="fill:none;stroke:rgb(98, 82, 197);transform:matrix(1, 0, 0, 1, -15.3598, 0);;animation:none"></path></g>
<g transform="matrix(0.9659258262890683,0.25881904510252074,-0.25881904510252074,0.9659258262890683,152.93265321261526,-134.78883113557106)" style="transform:matrix(0.965926, 0.258819, -0.258819, 0.965926, 152.933, -134.789);;animation:none"><path stroke-width="2" stroke-opacity="0" stroke="rgb(98, 82, 197)" fill="none" d="M -480 -69.414 C 0 -69.414 480 69.414 960 69.414 C 1440 69.414 1920 -69.414 2400 -69.414 C 2880 -69.414 3360 69.414 3840 69.414 C 4320 69.414 4800 -69.414 5280 -69.414" transform="matrix(1,0,0,1,-30.719518661499023,0)" style="fill:none;stroke:rgb(98, 82, 197);transform:matrix(1, 0, 0, 1, -30.7195, 0);;animation:none"></path></g>
<g transform="matrix(0.9659258262890683,0.25881904510252074,-0.25881904510252074,0.9659258262890683,152.93265321261526,596.0311533004641)" style="transform:matrix(0.965926, 0.258819, -0.258819, 0.965926, 152.933, 596.031);;animation:none"><path stroke-width="2" stroke-opacity="0" stroke="rgb(98, 82, 197)" fill="none" d="M -480 -69.3047 C 0 -69.3047 480 69.3047 960 69.3047 C 1440 69.3047 1920 -69.3047 2400 -69.3047 C 2880 -69.3047 3360 69.3047 3840 69.3047 C 4320 69.3047 4800 -69.3047 5280 -69.3047" transform="matrix(1,0,0,1,-46.08000183105469,0)" style="fill:none;stroke:rgb(98, 82, 197);transform:matrix(1, 0, 0, 1, -46.08, 0);;animation:none"></path></g>
<g transform="matrix(0.9659258262890683,0.25881904510252074,-0.25881904510252074,0.9659258262890683,152.93265321261526,-129.8288320510984)" style="transform:matrix(0.965926, 0.258819, -0.258819, 0.965926, 152.933, -129.829);;animation:none"><path stroke-width="2" stroke-opacity="0" stroke="rgb(97, 83, 197)" fill="none" d="M -480 -69.1494 C 0 -69.1494 480 69.1494 960 69.1494 C 1440 69.1494 1920 -69.1494 2400 -69.1494 C 2880 -69.1494 3360 69.1494 3840 69.1494 C 4320 69.1494 4800 -69.1494 5280 -69.1494" transform="matrix(1,0,0,1,-61.43975830078125,0)" style="fill:none;stroke:rgb(97, 83, 197);transform:matrix(1, 0, 0, 1, -61.4398, 0);;animation:none"></path></g>
<g transform="matrix(0.9659258262890683,0.25881904510252074,-0.25881904510252074,0.9659258262890683,152.93265321261526,591.0711923629641)" style="transform:matrix(0.965926, 0.258819, -0.258819, 0.965926, 152.933, 591.071);;animation:none"><path stroke-width="2" stroke-opacity="0" stroke="rgb(97, 83, 197)" fill="none" d="M -480 -68.9467 C 0 -68.9467 480 68.9467 960 68.9467 C 1440 68.9467 1920 -68.9467 2400 -68.9467 C 2880 -68.9467 3360 68.9467 3840 68.9467 C 4320 68.9467 4800 -68.9467 5280 -68.9467" transform="matrix(1,0,0,1,-76.79952239990234,0)" style="fill:none;stroke:rgb(97, 83, 197);transform:matrix(1, 0, 0, 1, -76.7995, 0);;animation:none"></path></g>
<g transform="matrix(0.9659258262890683,0.25881904510252074,-0.25881904510252074,0.9659258262890683,152.93265321261526,-124.87882747346168)" style="transform:matrix(0.965926, 0.258819, -0.258819, 0.965926, 152.933, -124.879);;animation:none"><path stroke-width="2" stroke-opacity="0" stroke="rgb(97, 84, 198)" fill="none" d="M -480 -68.6953 C 0 -68.6953 480 68.6953 960 68.6953 C 1440 68.6953 1920 -68.6953 2400 -68.6953 C 2880 -68.6953 3360 68.6953 3840 68.6953 C 4320 68.6953 4800 -68.6953 5280 -68.6953" transform="matrix(1,0,0,1,-92.16000366210938,0)" style="fill:none;stroke:rgb(97, 84, 198);transform:matrix(1, 0, 0, 1, -92.16, 0);;animation:none"></path></g>
<g transform="matrix(0.9659258262890683,0.25881904510252074,-0.25881904510252074,0.9659258262890683,152.93265321261526,586.1211801559328)" style="transform:matrix(0.965926, 0.258819, -0.258819, 0.965926, 152.933, 586.121);;animation:none"><path stroke-width="2" stroke-opacity="0" stroke="rgb(96, 85, 198)" fill="none" d="M -480 -68.3938 C 0 -68.3938 480 68.3938 960 68.3938 C 1440 68.3938 1920 -68.3938 2400 -68.3938 C 2880 -68.3938 3360 68.3938 3840 68.3938 C 4320 68.3938 4800 -68.3938 5280 -68.3938" transform="matrix(1,0,0,1,-107.51976013183594,0)" style="fill:none;stroke:rgb(96, 85, 198);transform:matrix(1, 0, 0, 1, -107.52, 0);;animation:none"></path></g>
<g transform="matrix(0.9659258262890683,0.25881904510252074,-0.25881904510252074,0.9659258262890683,152.93265321261526,-119.91882838898903)" style="transform:matrix(0.965926, 0.258819, -0.258819, 0.965926, 152.933, -119.919);;animation:none"><path stroke-width="2" stroke-opacity="0" stroke="rgb(95, 86, 198)" fill="none" d="M -480 -68.0405 C 0 -68.0405 480 68.0405 960 68.0405 C 1440 68.0405 1920 -68.0405 2400 -68.0405 C 2880 -68.0405 3360 68.0405 3840 68.0405 C 4320 68.0405 4800 -68.0405 5280 -68.0405" transform="matrix(1,0,0,1,-122.8795166015625,0)" style="fill:none;stroke:rgb(95, 86, 198);transform:matrix(1, 0, 0, 1, -122.88, 0);;animation:none"></path></g>
<g transform="matrix(0.9659258262890683,0.25881904510252074,-0.25881904510252074,0.9659258262890683,152.93265321261526,581.1611581832766)" style="transform:matrix(0.965926, 0.258819, -0.258819, 0.965926, 152.933, 581.161);;animation:none"><path stroke-width="2" stroke-opacity="0" stroke="rgb(95, 87, 198)" fill="none" d="M -480 -67.634 C 0 -67.634 480 67.634 960 67.634 C 1440 67.634 1920 -67.634 2400 -67.634 C 2880 -67.634 3360 67.634 3840 67.634 C 4320 67.634 4800 -67.634 5280 -67.634" transform="matrix(1,0,0,1,-138.24000549316406,0)" style="fill:none;stroke:rgb(95, 87, 198);transform:matrix(1, 0, 0, 1, -138.24, 0);;animation:none"></path></g>
<g transform="matrix(0.9659258262890683,0.25881904510252074,-0.25881904510252074,0.9659258262890683,152.93265321261526,-114.96883144074684)" style="transform:matrix(0.965926, 0.258819, -0.258819, 0.965926, 152.933, -114.969);;animation:none"><path stroke-width="2" stroke-opacity="0" stroke="rgb(94, 88, 199)" fill="none" d="M -480 -67.1728 C 0 -67.1728 480 67.1728 960 67.1728 C 1440 67.1728 1920 -67.1728 2400 -67.1728 C 2880 -67.1728 3360 67.1728 3840 67.1728 C 4320 67.1728 4800 -67.1728 5280 -67.1728" transform="matrix(1,0,0,1,-153.59976196289062,0)" style="fill:none;stroke:rgb(94, 88, 199);transform:matrix(1, 0, 0, 1, -153.6, 0);;animation:none"></path></g>
<g transform="matrix(0.9659258262890683,0.25881904510252074,-0.25881904510252074,0.9659258262890683,152.93265321261526,576.2111459762453)" style="transform:matrix(0.965926, 0.258819, -0.258819, 0.965926, 152.933, 576.211);;animation:none"><path stroke-width="2" stroke-opacity="0" stroke="rgb(93, 89, 199)" fill="none" d="M -480 -66.655 C 0 -66.655 480 66.655 960 66.655 C 1440 66.655 1920 -66.655 2400 -66.655 C 2880 -66.655 3360 66.655 3840 66.655 C 4320 66.655 4800 -66.655 5280 -66.655" transform="matrix(1,0,0,1,-168.9595184326172,0)" style="fill:none;stroke:rgb(93, 89, 199);transform:matrix(1, 0, 0, 1, -168.96, 0);;animation:none"></path></g>
<g transform="matrix(0.9659258262890683,0.25881904510252074,-0.25881904510252074,0.9659258262890683,152.93265321261526,-110.00883235627418)" style="transform:matrix(0.965926, 0.258819, -0.258819, 0.965926, 152.933, -110.009);;animation:none"><path stroke-width="2" stroke-opacity="0" stroke="rgb(92, 91, 200)" fill="none" d="M -480 -66.0791 C 0 -66.0791 480 66.0791 960 66.0791 C 1440 66.0791 1920 -66.0791 2400 -66.0791 C 2880 -66.0791 3360 66.0791 3840 66.0791 C 4320 66.0791 4800 -66.0791 5280 -66.0791" transform="matrix(1,0,0,1,-184.32000732421875,0)" style="fill:none;stroke:rgb(92, 91, 200);transform:matrix(1, 0, 0, 1, -184.32, 0);;animation:none"></path></g>
<g transform="matrix(0.9659258262890683,0.25881904510252074,-0.25881904510252074,0.9659258262890683,152.93265321261526,571.2511850387453)" style="transform:matrix(0.965926, 0.258819, -0.258819, 0.965926, 152.933, 571.251);;animation:none"><path stroke-width="2" stroke-opacity="0" stroke="rgb(91, 92, 200)" fill="none" d="M -480 -65.4434 C 0 -65.4434 480 65.4434 960 65.4434 C 1440 65.4434 1920 -65.4434 2400 -65.4434 C 2880 -65.4434 3360 65.4434 3840 65.4434 C 4320 65.4434 4800 -65.4434 5280 -65.4434" transform="matrix(1,0,0,1,-199.67974853515625,0)" style="fill:none;stroke:rgb(91, 92, 200);transform:matrix(1, 0, 0, 1, -199.68, 0);;animation:none"></path></g>
<g transform="matrix(0.9659258262890683,0.25881904510252074,-0.25881904510252074,0.9659258262890683,152.93265321261526,-105.05882777863746)" style="transform:matrix(0.965926, 0.258819, -0.258819, 0.965926, 152.933, -105.059);;animation:none"><path stroke-width="2" stroke-opacity="0" stroke="rgb(89, 94, 201)" fill="none" d="M -480 -64.746 C 0 -64.746 480 64.746 960 64.746 C 1440 64.746 1920 -64.746 2400 -64.746 C 2880 -64.746 3360 64.746 3840 64.746 C 4320 64.746 4800 -64.746 5280 -64.746" transform="matrix(1,0,0,1,-215.03952026367188,0)" style="fill:none;stroke:rgb(89, 94, 201);transform:matrix(1, 0, 0, 1, -215.04, 0);;animation:none"></path></g>
<g transform="matrix(0.9659258262890683,0.25881904510252074,-0.25881904510252074,0.9659258262890683,152.93265321261526,566.3011728317141)" style="transform:matrix(0.965926, 0.258819, -0.258819, 0.965926, 152.933, 566.301);;animation:none"><path stroke-width="2" stroke-opacity="0" stroke="rgb(88, 96, 202)" fill="none" d="M -480 -63.9851 C 0 -63.9851 480 63.9851 960 63.9851 C 1440 63.9851 1920 -63.9851 2400 -63.9851 C 2880 -63.9851 3360 63.9851 3840 63.9851 C 4320 63.9851 4800 -63.9851 5280 -63.9851" transform="matrix(1,0,0,1,-230.39999389648438,0)" style="fill:none;stroke:rgb(88, 96, 202);transform:matrix(1, 0, 0, 1, -230.4, 0);;animation:none"></path></g>
<g transform="matrix(0.9659258262890683,0.25881904510252074,-0.25881904510252074,0.9659258262890683,152.93265321261526,-100.09883632355934)" style="transform:matrix(0.965926, 0.258819, -0.258819, 0.965926, 152.933, -100.099);;animation:none"><path stroke-width="2" stroke-opacity="0" stroke="rgb(86, 99, 202)" fill="none" d="M -480 -63.159 C 0 -63.159 480 63.159 960 63.159 C 1440 63.159 1920 -63.159 2400 -63.159 C 2880 -63.159 3360 63.159 3840 63.159 C 4320 63.159 4800 -63.159 5280 -63.159" transform="matrix(1,0,0,1,-245.759765625,0)" style="fill:none;stroke:rgb(86, 99, 202);transform:matrix(1, 0, 0, 1, -245.76, 0);;animation:none"></path></g>
<g transform="matrix(0.9659258262890683,0.25881904510252074,-0.25881904510252074,0.9659258262890683,152.93265321261526,561.3511606246828)" style="transform:matrix(0.965926, 0.258819, -0.258819, 0.965926, 152.933, 561.351);;animation:none"><path stroke-width="2" stroke-opacity="0" stroke="rgb(84, 101, 203)" fill="none" d="M -480 -62.2657 C 0 -62.2657 480 62.2657 960 62.2657 C 1440 62.2657 1920 -62.2657 2400 -62.2657 C 2880 -62.2657 3360 62.2657 3840 62.2657 C 4320 62.2657 4800 -62.2657 5280 -62.2657" transform="matrix(1,0,0,1,-261.1195373535156,0)" style="fill:none;stroke:rgb(84, 101, 203);transform:matrix(1, 0, 0, 1, -261.12, 0);;animation:none"></path></g>
<g transform="matrix(0.9659258262890683,0.25881904510252074,-0.25881904510252074,0.9659258262890683,152.93265321261526,-95.14882411652809)" style="transform:matrix(0.965926, 0.258819, -0.258819, 0.965926, 152.933, -95.1488);;animation:none"><path stroke-width="2" stroke-opacity="0" stroke="rgb(82, 104, 204)" fill="none" d="M -480 -61.3034 C 0 -61.3034 480 61.3034 960 61.3034 C 1440 61.3034 1920 -61.3034 2400 -61.3034 C 2880 -61.3034 3360 61.3034 3840 61.3034 C 4320 61.3034 4800 -61.3034 5280 -61.3034" transform="matrix(1,0,0,1,-276.4800109863281,0)" style="fill:none;stroke:rgb(82, 104, 204);transform:matrix(1, 0, 0, 1, -276.48, 0);;animation:none"></path></g>
<g transform="matrix(0.9659258262890683,0.25881904510252074,-0.25881904510252074,0.9659258262890683,152.93265321261526,556.3911996871828)" style="transform:matrix(0.965926, 0.258819, -0.258819, 0.965926, 152.933, 556.391);;animation:none"><path stroke-width="2" stroke-opacity="0" stroke="rgb(80, 107, 205)" fill="none" d="M -480 -60.2701 C 0 -60.2701 480 60.2701 960 60.2701 C 1440 60.2701 1920 -60.2701 2400 -60.2701 C 2880 -60.2701 3360 60.2701 3840 60.2701 C 4320 60.2701 4800 -60.2701 5280 -60.2701" transform="matrix(1,0,0,1,-291.83978271484375,0)" style="fill:none;stroke:rgb(80, 107, 205);transform:matrix(1, 0, 0, 1, -291.84, 0);;animation:none"></path></g>
<g transform="matrix(0.9659258262890683,0.25881904510252074,-0.25881904510252074,0.9659258262890683,152.93265321261526,-90.18883266144996)" style="transform:matrix(0.965926, 0.258819, -0.258819, 0.965926, 152.933, -90.1888);;animation:none"><path stroke-width="2" stroke-opacity="0" stroke="rgb(78, 109, 206)" fill="none" d="M -480 -59.1641 C 0 -59.1641 480 59.1641 960 59.1641 C 1440 59.1641 1920 -59.1641 2400 -59.1641 C 2880 -59.1641 3360 59.1641 3840 59.1641 C 4320 59.1641 4800 -59.1641 5280 -59.1641" transform="matrix(1,0,0,1,-307.19952392578125,0)" style="fill:none;stroke:rgb(78, 109, 206);transform:matrix(1, 0, 0, 1, -307.2, 0);;animation:none"></path></g>
<g transform="matrix(0.9659258262890683,0.25881904510252074,-0.25881904510252074,0.9659258262890683,152.93265321261526,551.4411874801516)" style="transform:matrix(0.965926, 0.258819, -0.258819, 0.965926, 152.933, 551.441);;animation:none"><path stroke-width="2" stroke-opacity="0" stroke="rgb(76, 113, 207)" fill="none" d="M -480 -57.9833 C 0 -57.9833 480 57.9833 960 57.9833 C 1440 57.9833 1920 -57.9833 2400 -57.9833 C 2880 -57.9833 3360 57.9833 3840 57.9833 C 4320 57.9833 4800 -57.9833 5280 -57.9833" transform="matrix(1,0,0,1,-322.55999755859375,0)" style="fill:none;stroke:rgb(76, 113, 207);transform:matrix(1, 0, 0, 1, -322.56, 0);;animation:none"></path></g>
<g transform="matrix(0.9659258262890683,0.25881904510252074,-0.25881904510252074,0.9659258262890683,152.93265321261526,-85.23883571320778)" style="transform:matrix(0.965926, 0.258819, -0.258819, 0.965926, 152.933, -85.2388);;animation:none"><path stroke-width="2" stroke-opacity="0" stroke="rgb(73, 116, 208)" fill="none" d="M -480 -56.726 C 0 -56.726 480 56.726 960 56.726 C 1440 56.726 1920 -56.726 2400 -56.726 C 2880 -56.726 3360 56.726 3840 56.726 C 4320 56.726 4800 -56.726 5280 -56.726" transform="matrix(1,0,0,1,-337.9197692871094,0)" style="fill:none;stroke:rgb(73, 116, 208);transform:matrix(1, 0, 0, 1, -337.92, 0);;animation:none"></path></g>
<g transform="matrix(0.9659258262890683,0.25881904510252074,-0.25881904510252074,0.9659258262890683,152.93265321261526,546.4811655074953)" style="transform:matrix(0.965926, 0.258819, -0.258819, 0.965926, 152.933, 546.481);;animation:none"><path stroke-width="2" stroke-opacity="0" stroke="rgb(71, 119, 209)" fill="none" d="M -480 -55.3904 C 0 -55.3904 480 55.3904 960 55.3904 C 1440 55.3904 1920 -55.3904 2400 -55.3904 C 2880 -55.3904 3360 55.3904 3840 55.3904 C 4320 55.3904 4800 -55.3904 5280 -55.3904" transform="matrix(1,0,0,1,-353.2795104980469,0)" style="fill:none;stroke:rgb(71, 119, 209);transform:matrix(1, 0, 0, 1, -353.28, 0);;animation:none"></path></g>
<g transform="matrix(0.9659258262890683,0.25881904510252074,-0.25881904510252074,0.9659258262890683,152.93265321261526,-80.27882899934059)" style="transform:matrix(0.965926, 0.258819, -0.258819, 0.965926, 152.933, -80.2788);;animation:none"><path stroke-width="2" stroke-opacity="0" stroke="rgb(69, 122, 210)" fill="none" d="M -480 -53.9747 C 0 -53.9747 480 53.9747 960 53.9747 C 1440 53.9747 1920 -53.9747 2400 -53.9747 C 2880 -53.9747 3360 53.9747 3840 53.9747 C 4320 53.9747 4800 -53.9747 5280 -53.9747" transform="matrix(1,0,0,1,-368.6400146484375,0)" style="fill:none;stroke:rgb(69, 122, 210);transform:matrix(1, 0, 0, 1, -368.64, 0);;animation:none"></path></g>
<g transform="matrix(0.9659258262890683,0.25881904510252074,-0.25881904510252074,0.9659258262890683,152.93265321261526,541.5311533004641)" style="transform:matrix(0.965926, 0.258819, -0.258819, 0.965926, 152.933, 541.531);;animation:none"><path stroke-width="2" stroke-opacity="0" stroke="rgb(66, 126, 211)" fill="none" d="M -480 -52.4773 C 0 -52.4773 480 52.4773 960 52.4773 C 1440 52.4773 1920 -52.4773 2400 -52.4773 C 2880 -52.4773 3360 52.4773 3840 52.4773 C 4320 52.4773 4800 -52.4773 5280 -52.4773" transform="matrix(1,0,0,1,-383.999755859375,0)" style="fill:none;stroke:rgb(66, 126, 211);transform:matrix(1, 0, 0, 1, -384, 0);;animation:none"></path></g>
<g transform="matrix(0.9659258262890683,0.25881904510252074,-0.25881904510252074,0.9659258262890683,152.93265321261526,-75.3288320510984)" style="transform:matrix(0.965926, 0.258819, -0.258819, 0.965926, 152.933, -75.3288);;animation:none"><path stroke-width="2" stroke-opacity="0" stroke="rgb(64, 129, 212)" fill="none" d="M -480 -50.8968 C 0 -50.8968 480 50.8968 960 50.8968 C 1440 50.8968 1920 -50.8968 2400 -50.8968 C 2880 -50.8968 3360 50.8968 3840 50.8968 C 4320 50.8968 4800 -50.8968 5280 -50.8968" transform="matrix(1,0,0,1,-399.3594970703125,0)" style="fill:none;stroke:rgb(64, 129, 212);transform:matrix(1, 0, 0, 1, -399.359, 0);;animation:none"></path></g>
<g transform="matrix(0.9659258262890683,0.25881904510252074,-0.25881904510252074,0.9659258262890683,152.93265321261526,536.5711923629641)" style="transform:matrix(0.965926, 0.258819, -0.258819, 0.965926, 152.933, 536.571);;animation:none"><path stroke-width="2" stroke-opacity="0" stroke="rgb(62, 132, 213)" fill="none" d="M -480 -49.2318 C 0 -49.2318 480 49.2318 960 49.2318 C 1440 49.2318 1920 -49.2318 2400 -49.2318 C 2880 -49.2318 3360 49.2318 3840 49.2318 C 4320 49.2318 4800 -49.2318 5280 -49.2318" transform="matrix(1,0,0,1,-414.719970703125,0)" style="fill:none;stroke:rgb(62, 132, 213);transform:matrix(1, 0, 0, 1, -414.72, 0);;animation:none"></path></g>
<g transform="matrix(0.9659258262890683,0.25881904510252074,-0.25881904510252074,0.9659258262890683,152.93265321261526,-70.36882533723121)" style="transform:matrix(0.965926, 0.258819, -0.258819, 0.965926, 152.933, -70.3688);;animation:none"><path stroke-width="2" stroke-opacity="0" stroke="rgb(60, 135, 214)" fill="none" d="M -480 -47.4812 C 0 -47.4812 480 47.4812 960 47.4812 C 1440 47.4812 1920 -47.4812 2400 -47.4812 C 2880 -47.4812 3360 47.4812 3840 47.4812 C 4320 47.4812 4800 -47.4812 5280 -47.4812" transform="matrix(1,0,0,1,-430.07977294921875,0)" style="fill:none;stroke:rgb(60, 135, 214);transform:matrix(1, 0, 0, 1, -430.08, 0);;animation:none"></path></g>
<g transform="matrix(0.9659258262890683,0.25881904510252074,-0.25881904510252074,0.9659258262890683,152.93265321261526,531.6211801559328)" style="transform:matrix(0.965926, 0.258819, -0.258819, 0.965926, 152.933, 531.621);;animation:none"><path stroke-width="2" stroke-opacity="0" stroke="rgb(58, 138, 215)" fill="none" d="M -480 -45.6442 C 0 -45.6442 480 45.6442 960 45.6442 C 1440 45.6442 1920 -45.6442 2400 -45.6442 C 2880 -45.6442 3360 45.6442 3840 45.6442 C 4320 45.6442 4800 -45.6442 5280 -45.6442" transform="matrix(1,0,0,1,-445.43951416015625,0)" style="fill:none;stroke:rgb(58, 138, 215);transform:matrix(1, 0, 0, 1, -445.44, 0);;animation:none"></path></g>
<g transform="matrix(0.9659258262890683,0.25881904510252074,-0.25881904510252074,0.9659258262890683,152.93265321261526,-65.41882838898903)" style="transform:matrix(0.965926, 0.258819, -0.258819, 0.965926, 152.933, -65.4189);;animation:none"><path stroke-width="2" stroke-opacity="0" stroke="rgb(56, 140, 216)" fill="none" d="M -480 -43.72 C 0 -43.72 480 43.72 960 43.72 C 1440 43.72 1920 -43.72 2400 -43.72 C 2880 -43.72 3360 43.72 3840 43.72 C 4320 43.72 4800 -43.72 5280 -43.72" transform="matrix(1,0,0,1,-460.79998779296875,0)" style="fill:none;stroke:rgb(56, 140, 216);transform:matrix(1, 0, 0, 1, -460.8, 0);;animation:none"></path></g>
<g transform="matrix(0.9659258262890683,0.25881904510252074,-0.25881904510252074,0.9659258262890683,152.93265321261526,526.6611581832766)" style="transform:matrix(0.965926, 0.258819, -0.258819, 0.965926, 152.933, 526.661);;animation:none"><path stroke-width="2" stroke-opacity="0" stroke="rgb(54, 143, 217)" fill="none" d="M -480 -41.7086 C 0 -41.7086 480 41.7086 960 41.7086 C 1440 41.7086 1920 -41.7086 2400 -41.7086 C 2880 -41.7086 3360 41.7086 3840 41.7086 C 4320 41.7086 4800 -41.7086 5280 -41.7086" transform="matrix(1,0,0,1,-476.1597900390625,0)" style="fill:none;stroke:rgb(54, 143, 217);transform:matrix(1, 0, 0, 1, -476.16, 0);;animation:none"></path></g>
<g transform="matrix(0.9659258262890683,0.25881904510252074,-0.25881904510252074,0.9659258262890683,152.93265321261526,-60.46883144074684)" style="transform:matrix(0.965926, 0.258819, -0.258819, 0.965926, 152.933, -60.4688);;animation:none"><path stroke-width="2" stroke-opacity="0" stroke="rgb(52, 145, 217)" fill="none" d="M -480 -39.6101 C 0 -39.6101 480 39.6101 960 39.6101 C 1440 39.6101 1920 -39.6101 2400 -39.6101 C 2880 -39.6101 3360 39.6101 3840 39.6101 C 4320 39.6101 4800 -39.6101 5280 -39.6101" transform="matrix(1,0,0,1,-491.51953125,0)" style="fill:none;stroke:rgb(52, 145, 217);transform:matrix(1, 0, 0, 1, -491.52, 0);;animation:none"></path></g>
<g transform="matrix(0.9659258262890683,0.25881904510252074,-0.25881904510252074,0.9659258262890683,152.93265321261526,521.7111459762453)" style="transform:matrix(0.965926, 0.258819, -0.258819, 0.965926, 152.933, 521.711);;animation:none"><path stroke-width="2" stroke-opacity="0" stroke="rgb(51, 147, 218)" fill="none" d="M -480 -37.425 C 0 -37.425 480 37.425 960 37.425 C 1440 37.425 1920 -37.425 2400 -37.425 C 2880 -37.425 3360 37.425 3840 37.425 C 4320 37.425 4800 -37.425 5280 -37.425" transform="matrix(1,0,0,1,-506.8800048828125,0)" style="fill:none;stroke:rgb(51, 147, 218);transform:matrix(1, 0, 0, 1, -506.88, 0);;animation:none"></path></g>
<g transform="matrix(0.9659258262890683,0.25881904510252074,-0.25881904510252074,0.9659258262890683,152.93265321261526,-55.50882472687965)" style="transform:matrix(0.965926, 0.258819, -0.258819, 0.965926, 152.933, -55.5088);;animation:none"><path stroke-width="2" stroke-opacity="0" stroke="rgb(49, 149, 219)" fill="none" d="M -480 -35.1548 C 0 -35.1548 480 35.1548 960 35.1548 C 1440 35.1548 1920 -35.1548 2400 -35.1548 C 2880 -35.1548 3360 35.1548 3840 35.1548 C 4320 35.1548 4800 -35.1548 5280 -35.1548" transform="matrix(1,0,0,1,-522.23974609375,0)" style="fill:none;stroke:rgb(49, 149, 219);transform:matrix(1, 0, 0, 1, -522.24, 0);;animation:none"></path></g>
<g transform="matrix(0.9659258262890683,0.25881904510252074,-0.25881904510252074,0.9659258262890683,152.93265321261526,516.7511850387453)" style="transform:matrix(0.965926, 0.258819, -0.258819, 0.965926, 152.933, 516.751);;animation:none"><path stroke-width="2" stroke-opacity="0" stroke="rgb(48, 151, 219)" fill="none" d="M -480 -32.8009 C 0 -32.8009 480 32.8009 960 32.8009 C 1440 32.8009 1920 -32.8009 2400 -32.8009 C 2880 -32.8009 3360 32.8009 3840 32.8009 C 4320 32.8009 4800 -32.8009 5280 -32.8009" transform="matrix(1,0,0,1,-537.5995483398438,0)" style="fill:none;stroke:rgb(48, 151, 219);transform:matrix(1, 0, 0, 1, -537.6, 0);;animation:none"></path></g>
<g transform="matrix(0.9659258262890683,0.25881904510252074,-0.25881904510252074,0.9659258262890683,152.93265321261526,-50.558827778637465)" style="transform:matrix(0.965926, 0.258819, -0.258819, 0.965926, 152.933, -50.5588);;animation:none"><path stroke-width="2" stroke-opacity="0" stroke="rgb(47, 152, 220)" fill="none" d="M -480 -30.3658 C 0 -30.3658 480 30.3658 960 30.3658 C 1440 30.3658 1920 -30.3658 2400 -30.3658 C 2880 -30.3658 3360 30.3658 3840 30.3658 C 4320 30.3658 4800 -30.3658 5280 -30.3658" transform="matrix(1,0,0,1,-552.9600219726562,0)" style="fill:none;stroke:rgb(47, 152, 220);transform:matrix(1, 0, 0, 1, -552.96, 0);;animation:none"></path></g>
<g transform="matrix(0.9659258262890683,0.25881904510252074,-0.25881904510252074,0.9659258262890683,152.93265321261526,511.8011728317141)" style="transform:matrix(0.965926, 0.258819, -0.258819, 0.965926, 152.933, 511.801);;animation:none"><path stroke-width="2" stroke-opacity="0" stroke="rgb(46, 153, 220)" fill="none" d="M -480 -27.8526 C 0 -27.8526 480 27.8526 960 27.8526 C 1440 27.8526 1920 -27.8526 2400 -27.8526 C 2880 -27.8526 3360 27.8526 3840 27.8526 C 4320 27.8526 4800 -27.8526 5280 -27.8526" transform="matrix(1,0,0,1,-568.3197631835938,0)" style="fill:none;stroke:rgb(46, 153, 220);transform:matrix(1, 0, 0, 1, -568.32, 0);;animation:none"></path></g>
<g transform="matrix(0.9659258262890683,0.25881904510252074,-0.25881904510252074,0.9659258262890683,152.93265321261526,-45.59883632355934)" style="transform:matrix(0.965926, 0.258819, -0.258819, 0.965926, 152.933, -45.5989);;animation:none"><path stroke-width="2" stroke-opacity="0" stroke="rgb(45, 155, 221)" fill="none" d="M -480 -25.265 C 0 -25.265 480 25.265 960 25.265 C 1440 25.265 1920 -25.265 2400 -25.265 C 2880 -25.265 3360 25.265 3840 25.265 C 4320 25.265 4800 -25.265 5280 -25.265" transform="matrix(1,0,0,1,-583.6795654296875,0)" style="fill:none;stroke:rgb(45, 155, 221);transform:matrix(1, 0, 0, 1, -583.68, 0);;animation:none"></path></g>
<g transform="matrix(0.9659258262890683,0.25881904510252074,-0.25881904510252074,0.9659258262890683,152.93265321261526,506.84115085905785)" style="transform:matrix(0.965926, 0.258819, -0.258819, 0.965926, 152.933, 506.841);;animation:none"><path stroke-width="2" stroke-opacity="0" stroke="rgb(44, 156, 221)" fill="none" d="M -480 -22.6076 C 0 -22.6076 480 22.6076 960 22.6076 C 1440 22.6076 1920 -22.6076 2400 -22.6076 C 2880 -22.6076 3360 22.6076 3840 22.6076 C 4320 22.6076 4800 -22.6076 5280 -22.6076" transform="matrix(1,0,0,1,-599.0400390625,0)" style="fill:none;stroke:rgb(44, 156, 221);transform:matrix(1, 0, 0, 1, -599.04, 0);;animation:none"></path></g>
<g transform="matrix(0.9659258262890683,0.25881904510252074,-0.25881904510252074,0.9659258262890683,152.93265321261526,-40.64882411652809)" style="transform:matrix(0.965926, 0.258819, -0.258819, 0.965926, 152.933, -40.6488);;animation:none"><path stroke-width="2" stroke-opacity="0" stroke="rgb(44, 156, 221)" fill="none" d="M -480 -19.8859 C 0 -19.8859 480 19.8859 960 19.8859 C 1440 19.8859 1920 -19.8859 2400 -19.8859 C 2880 -19.8859 3360 19.8859 3840 19.8859 C 4320 19.8859 4800 -19.8859 5280 -19.8859" transform="matrix(1,0,0,1,-614.3997802734375,0)" style="fill:none;stroke:rgb(44, 156, 221);transform:matrix(1, 0, 0, 1, -614.4, 0);;animation:none"></path></g>
<g transform="matrix(0.9659258262890683,0.25881904510252074,-0.25881904510252074,0.9659258262890683,152.93265321261526,501.89119968718285)" style="transform:matrix(0.965926, 0.258819, -0.258819, 0.965926, 152.933, 501.891);;animation:none"><path stroke-width="2" stroke-opacity="0" stroke="rgb(43, 157, 221)" fill="none" d="M -480 -17.1058 C 0 -17.1058 480 17.1058 960 17.1058 C 1440 17.1058 1920 -17.1058 2400 -17.1058 C 2880 -17.1058 3360 17.1058 3840 17.1058 C 4320 17.1058 4800 -17.1058 5280 -17.1058" transform="matrix(1,0,0,1,-629.759521484375,0)" style="fill:none;stroke:rgb(43, 157, 221);transform:matrix(1, 0, 0, 1, -629.76, 0);;animation:none"></path></g>
<g transform="matrix(0.9659258262890683,0.25881904510252074,-0.25881904510252074,0.9659258262890683,152.93265321261526,-35.688832661449965)" style="transform:matrix(0.965926, 0.258819, -0.258819, 0.965926, 152.933, -35.6888);;animation:none"><path stroke-width="2" stroke-opacity="0" stroke="rgb(43, 158, 222)" fill="none" d="M -480 -14.2742 C 0 -14.2742 480 14.2742 960 14.2742 C 1440 14.2742 1920 -14.2742 2400 -14.2742 C 2880 -14.2742 3360 14.2742 3840 14.2742 C 4320 14.2742 4800 -14.2742 5280 -14.2742" transform="matrix(1,0,0,1,-645.1199951171875,0)" style="fill:none;stroke:rgb(43, 158, 222);transform:matrix(1, 0, 0, 1, -645.12, 0);;animation:none"></path></g>
<g transform="matrix(0.9659258262890683,0.25881904510252074,-0.25881904510252074,0.9659258262890683,152.93265321261526,496.9311777145266)" style="transform:matrix(0.965926, 0.258819, -0.258819, 0.965926, 152.933, 496.931);;animation:none"><path stroke-width="2" stroke-opacity="0" stroke="rgb(43, 158, 222)" fill="none" d="M -480 -11.3988 C 0 -11.3988 480 11.3988 960 11.3988 C 1440 11.3988 1920 -11.3988 2400 -11.3988 C 2880 -11.3988 3360 11.3988 3840 11.3988 C 4320 11.3988 4800 -11.3988 5280 -11.3988" transform="matrix(1,0,0,1,-660.479736328125,0)" style="fill:none;stroke:rgb(43, 158, 222);transform:matrix(1, 0, 0, 1, -660.48, 0);;animation:none"></path></g>
<g transform="matrix(0.9659258262890683,0.25881904510252074,-0.25881904510252074,0.9659258262890683,152.93265321261526,-30.738835713207777)" style="transform:matrix(0.965926, 0.258819, -0.258819, 0.965926, 152.933, -30.7388);;animation:none"><path stroke-width="2" stroke-opacity="0" stroke="rgb(42, 159, 222)" fill="none" d="M -480 -8.48768 C 0 -8.48768 480 8.48768 960 8.48768 C 1440 8.48768 1920 -8.48768 2400 -8.48768 C 2880 -8.48768 3360 8.48768 3840 8.48768 C 4320 8.48768 4800 -8.48768 5280 -8.48768" transform="matrix(1,0,0,1,-675.8395385742188,0)" style="fill:none;stroke:rgb(42, 159, 222);transform:matrix(1, 0, 0, 1, -675.84, 0);;animation:none"></path></g>
<g transform="matrix(0.9659258262890683,0.25881904510252074,-0.25881904510252074,0.9659258262890683,152.93265321261526,491.98116550749535)" style="transform:matrix(0.965926, 0.258819, -0.258819, 0.965926, 152.933, 491.981);;animation:none"><path stroke-width="2" stroke-opacity="0" stroke="rgb(42, 159, 222)" fill="none" d="M -480 -5.54949 C 0 -5.54949 480 5.54949 960 5.54949 C 1440 5.54949 1920 -5.54949 2400 -5.54949 C 2880 -5.54949 3360 5.54949 3840 5.54949 C 4320 5.54949 4800 -5.54949 5280 -5.54949" transform="matrix(1,0,0,1,-691.2000122070312,0)" style="fill:none;stroke:rgb(42, 159, 222);transform:matrix(1, 0, 0, 1, -691.2, 0);;animation:none"></path></g>
<g transform="matrix(0.9659258262890683,0.25881904510252074,-0.25881904510252074,0.9659258262890683,152.93265321261526,-25.77882899934059)" style="transform:matrix(0.965926, 0.258819, -0.258819, 0.965926, 152.933, -25.7788);;animation:none"><path stroke-width="2" stroke-opacity="0.022727272727272728" stroke="rgb(42, 159, 222)" fill="none" d="M -480 -2.59364 C 0 -2.59364 480 2.59364 960 2.59364 C 1440 2.59364 1920 -2.59364 2400 -2.59364 C 2880 -2.59364 3360 2.59364 3840 2.59364 C 4320 2.59364 4800 -2.59364 5280 -2.59364" transform="matrix(1,0,0,1,-706.5597534179688,0)" style="fill:none;stroke:rgb(42, 159, 222);transform:matrix(1, 0, 0, 1, -706.56, 0);;animation:none"></path></g>
<g transform="matrix(0.9659258262890683,0.25881904510252074,-0.25881904510252074,0.9659258262890683,152.93265321261526,487.0311533004641)" style="transform:matrix(0.965926, 0.258819, -0.258819, 0.965926, 152.933, 487.031);;animation:none"><path stroke-width="2" stroke-opacity="0.045454545454545456" stroke="rgb(42, 159, 222)" fill="none" d="M -480 0.370574 C 0 0.370574 480 -0.370574 960 -0.370574 C 1440 -0.370574 1920 0.370574 2400 0.370574 C 2880 0.370574 3360 -0.370574 3840 -0.370574 C 4320 -0.370574 4800 0.370574 5280 0.370574" transform="matrix(1,0,0,1,-721.9194946289062,0)" style="fill:none;stroke:rgb(42, 159, 222);transform:matrix(1, 0, 0, 1, -721.919, 0);;animation:none"></path></g>
<g transform="matrix(0.9659258262890683,0.25881904510252074,-0.25881904510252074,0.9659258262890683,152.93265321261526,-20.828832051098402)" style="transform:matrix(0.965926, 0.258819, -0.258819, 0.965926, 152.933, -20.8288);;animation:none"><path stroke-width="2" stroke-opacity="0.06818181818181818" stroke="rgb(42, 159, 222)" fill="none" d="M -480 3.33373 C 0 3.33373 480 -3.33373 960 -3.33373 C 1440 -3.33373 1920 3.33373 2400 3.33373 C 2880 3.33373 3360 -3.33373 3840 -3.33373 C 4320 -3.33373 4800 3.33373 5280 3.33373" transform="matrix(1,0,0,1,-737.280029296875,0)" style="fill:none;stroke:rgb(42, 159, 222);transform:matrix(1, 0, 0, 1, -737.28, 0);;animation:none"></path></g>
<g transform="matrix(0.9659258262890683,0.25881904510252074,-0.25881904510252074,0.9659258262890683,152.93265321261526,482.0711923629641)" style="transform:matrix(0.965926, 0.258819, -0.258819, 0.965926, 152.933, 482.071);;animation:none"><path stroke-width="2" stroke-opacity="0.09090909090909091" stroke="rgb(42, 159, 222)" fill="none" d="M -480 6.28601 C 0 6.28601 480 -6.28601 960 -6.28601 C 1440 -6.28601 1920 6.28601 2400 6.28601 C 2880 6.28601 3360 -6.28601 3840 -6.28601 C 4320 -6.28601 4800 6.28601 5280 6.28601" transform="matrix(1,0,0,1,-752.6397705078125,0)" style="fill:none;stroke:rgb(42, 159, 222);transform:matrix(1, 0, 0, 1, -752.64, 0);;animation:none"></path></g>
<g transform="matrix(0.9659258262890683,0.25881904510252074,-0.25881904510252074,0.9659258262890683,152.93265321261526,-15.868825337231215)" style="transform:matrix(0.965926, 0.258819, -0.258819, 0.965926, 152.933, -15.8688);;animation:none"><path stroke-width="2" stroke-opacity="0.11363636363636363" stroke="rgb(42, 159, 222)" fill="none" d="M -480 9.21816 C 0 9.21816 480 -9.21816 960 -9.21816 C 1440 -9.21816 1920 9.21816 2400 9.21816 C 2880 9.21816 3360 -9.21816 3840 -9.21816 C 4320 -9.21816 4800 9.21816 5280 9.21816" transform="matrix(1,0,0,1,-767.99951171875,0)" style="fill:none;stroke:rgb(42, 159, 222);transform:matrix(1, 0, 0, 1, -768, 0);;animation:none"></path></g>
<g transform="matrix(0.9659258262890683,0.25881904510252074,-0.25881904510252074,0.9659258262890683,152.93265321261526,477.12118015593285)" style="transform:matrix(0.965926, 0.258819, -0.258819, 0.965926, 152.933, 477.121);;animation:none"><path stroke-width="2" stroke-opacity="0.13636363636363635" stroke="rgb(42, 160, 221)" fill="none" d="M -480 12.1213 C 0 12.1213 480 -12.1213 960 -12.1213 C 1440 -12.1213 1920 12.1213 2400 12.1213 C 2880 12.1213 3360 -12.1213 3840 -12.1213 C 4320 -12.1213 4800 12.1213 5280 12.1213" transform="matrix(1,0,0,1,-783.3600463867188,0)" style="fill:none;stroke:rgb(42, 160, 221);transform:matrix(1, 0, 0, 1, -783.36, 0);;animation:none"></path></g>
<g transform="matrix(0.9659258262890683,0.25881904510252074,-0.25881904510252074,0.9659258262890683,152.93265321261526,-10.918828388989027)" style="transform:matrix(0.965926, 0.258819, -0.258819, 0.965926, 152.933, -10.9189);;animation:none"><path stroke-width="2" stroke-opacity="0.1590909090909091" stroke="rgb(42, 160, 221)" fill="none" d="M -480 14.9864 C 0 14.9864 480 -14.9864 960 -14.9864 C 1440 -14.9864 1920 14.9864 2400 14.9864 C 2880 14.9864 3360 -14.9864 3840 -14.9864 C 4320 -14.9864 4800 14.9864 5280 14.9864" transform="matrix(1,0,0,1,-798.7197875976562,0)" style="fill:none;stroke:rgb(42, 160, 221);transform:matrix(1, 0, 0, 1, -798.72, 0);;animation:none"></path></g>
<g transform="matrix(0.9659258262890683,0.25881904510252074,-0.25881904510252074,0.9659258262890683,152.93265321261526,472.1611581832766)" style="transform:matrix(0.965926, 0.258819, -0.258819, 0.965926, 152.933, 472.161);;animation:none"><path stroke-width="2" stroke-opacity="0.18181818181818182" stroke="rgb(42, 161, 220)" fill="none" d="M -480 17.8058 C 0 17.8058 480 -17.8058 960 -17.8058 C 1440 -17.8058 1920 17.8058 2400 17.8058 C 2880 17.8058 3360 -17.8058 3840 -17.8058 C 4320 -17.8058 4800 17.8058 5280 17.8058" transform="matrix(1,0,0,1,-814.0795288085938,0)" style="fill:none;stroke:rgb(42, 161, 220);transform:matrix(1, 0, 0, 1, -814.08, 0);;animation:none"></path></g>
<g transform="matrix(0.9659258262890683,0.25881904510252074,-0.25881904510252074,0.9659258262890683,152.93265321261526,-5.958836933910902)" style="transform:matrix(0.965926, 0.258819, -0.258819, 0.965926, 152.933, -5.95884);;animation:none"><path stroke-width="2" stroke-opacity="0.20454545454545456" stroke="rgb(42, 161, 220)" fill="none" d="M -480 20.572 C 0 20.572 480 -20.572 960 -20.572 C 1440 -20.572 1920 20.572 2400 20.572 C 2880 20.572 3360 -20.572 3840 -20.572 C 4320 -20.572 4800 20.572 5280 20.572" transform="matrix(1,0,0,1,-829.43994140625,0)" style="fill:none;stroke:rgb(42, 161, 220);transform:matrix(1, 0, 0, 1, -829.44, 0);;animation:none"></path></g>
<g transform="matrix(0.9659258262890683,0.25881904510252074,-0.25881904510252074,0.9659258262890683,152.93265321261526,467.21114597624535)" style="transform:matrix(0.965926, 0.258819, -0.258819, 0.965926, 152.933, 467.211);;animation:none"><path stroke-width="2" stroke-opacity="0.22727272727272727" stroke="rgb(42, 162, 219)" fill="none" d="M -480 23.2782 C 0 23.2782 480 -23.2782 960 -23.2782 C 1440 -23.2782 1920 23.2782 2400 23.2782 C 2880 23.2782 3360 -23.2782 3840 -23.2782 C 4320 -23.2782 4800 23.2782 5280 23.2782" transform="matrix(1,0,0,1,-844.7998046875,0)" style="fill:none;stroke:rgb(42, 162, 219);transform:matrix(1, 0, 0, 1, -844.8, 0);;animation:none"></path></g>
<g transform="matrix(0.9659258262890683,0.25881904510252074,-0.25881904510252074,0.9659258262890683,152.93265321261526,-1.0088247268796522)" style="transform:matrix(0.965926, 0.258819, -0.258819, 0.965926, 152.933, -1.00882);;animation:none"><path stroke-width="2" stroke-opacity="0.25" stroke="rgb(41, 163, 218)" fill="none" d="M -480 25.9185 C 0 25.9185 480 -25.9185 960 -25.9185 C 1440 -25.9185 1920 25.9185 2400 25.9185 C 2880 25.9185 3360 -25.9185 3840 -25.9185 C 4320 -25.9185 4800 25.9185 5280 25.9185" transform="matrix(1,0,0,1,-860.1595458984375,0)" style="fill:none;stroke:rgb(41, 163, 218);transform:matrix(1, 0, 0, 1, -860.16, 0);;animation:none"></path></g>
<g transform="matrix(0.9659258262890683,0.25881904510252074,-0.25881904510252074,0.9659258262890683,152.93265321261526,462.25118503874535)" style="transform:matrix(0.965926, 0.258819, -0.258819, 0.965926, 152.933, 462.251);;animation:none"><path stroke-width="2" stroke-opacity="0.2727272727272727" stroke="rgb(41, 164, 217)" fill="none" d="M -480 28.488 C 0 28.488 480 -28.488 960 -28.488 C 1440 -28.488 1920 28.488 2400 28.488 C 2880 28.488 3360 -28.488 3840 -28.488 C 4320 -28.488 4800 28.488 5280 28.488" transform="matrix(1,0,0,1,-875.5199584960938,0)" style="fill:none;stroke:rgb(41, 164, 217);transform:matrix(1, 0, 0, 1, -875.52, 0);;animation:none"></path></g>
<g transform="matrix(0.9659258262890683,0.25881904510252074,-0.25881904510252074,0.9659258262890683,152.93265321261526,3.951166728198473)" style="transform:matrix(0.965926, 0.258819, -0.258819, 0.965926, 152.933, 3.95114);;animation:none"><path stroke-width="2" stroke-opacity="0.29545454545454547" stroke="rgb(41, 166, 215)" fill="none" d="M -480 30.982 C 0 30.982 480 -30.982 960 -30.982 C 1440 -30.982 1920 30.982 2400 30.982 C 2880 30.982 3360 -30.982 3840 -30.982 C 4320 -30.982 4800 30.982 5280 30.982" transform="matrix(1,0,0,1,-890.8798217773438,0)" style="fill:none;stroke:rgb(41, 166, 215);transform:matrix(1, 0, 0, 1, -890.88, 0);;animation:none"></path></g>
<g transform="matrix(0.9659258262890683,0.25881904510252074,-0.25881904510252074,0.9659258262890683,152.93265321261526,457.3011728317141)" style="transform:matrix(0.965926, 0.258819, -0.258819, 0.965926, 152.933, 457.301);;animation:none"><path stroke-width="2" stroke-opacity="0.3181818181818182" stroke="rgb(41, 167, 214)" fill="none" d="M -480 33.397 C 0 33.397 480 -33.397 960 -33.397 C 1440 -33.397 1920 33.397 2400 33.397 C 2880 33.397 3360 -33.397 3840 -33.397 C 4320 -33.397 4800 33.397 5280 33.397" transform="matrix(1,0,0,1,-906.2395629882812,0)" style="fill:none;stroke:rgb(41, 167, 214);transform:matrix(1, 0, 0, 1, -906.24, 0);;animation:none"></path></g>
<g transform="matrix(0.9659258262890683,0.25881904510252074,-0.25881904510252074,0.9659258262890683,152.93265321261526,8.90116367644066)" style="transform:matrix(0.965926, 0.258819, -0.258819, 0.965926, 152.933, 8.90115);;animation:none"><path stroke-width="2" stroke-opacity="0.3409090909090909" stroke="rgb(41, 168, 213)" fill="none" d="M -480 35.7302 C 0 35.7302 480 -35.7302 960 -35.7302 C 1440 -35.7302 1920 35.7302 2400 35.7302 C 2880 35.7302 3360 -35.7302 3840 -35.7302 C 4320 -35.7302 4800 35.7302 5280 35.7302" transform="matrix(1,0,0,1,-921.5999755859375,0)" style="fill:none;stroke:rgb(41, 168, 213);transform:matrix(1, 0, 0, 1, -921.6, 0);;animation:none"></path></g>
<g transform="matrix(0.9659258262890683,0.25881904510252074,-0.25881904510252074,0.9659258262890683,152.93265321261526,452.34115085905785)" style="transform:matrix(0.965926, 0.258819, -0.258819, 0.965926, 152.933, 452.341);;animation:none"><path stroke-width="2" stroke-opacity="0.36363636363636365" stroke="rgb(41, 170, 211)" fill="none" d="M -480 37.9793 C 0 37.9793 480 -37.9793 960 -37.9793 C 1440 -37.9793 1920 37.9793 2400 37.9793 C 2880 37.9793 3360 -37.9793 3840 -37.9793 C 4320 -37.9793 4800 37.9793 5280 37.9793" transform="matrix(1,0,0,1,-936.959716796875,0)" style="fill:none;stroke:rgb(41, 170, 211);transform:matrix(1, 0, 0, 1, -936.96, 0);;animation:none"></path></g>
<g transform="matrix(0.9659258262890683,0.25881904510252074,-0.25881904510252074,0.9659258262890683,152.93265321261526,13.85117588347191)" style="transform:matrix(0.965926, 0.258819, -0.258819, 0.965926, 152.933, 13.8512);;animation:none"><path stroke-width="2" stroke-opacity="0.38636363636363635" stroke="rgb(40, 172, 209)" fill="none" d="M -480 40.1428 C 0 40.1428 480 -40.1428 960 -40.1428 C 1440 -40.1428 1920 40.1428 2400 40.1428 C 2880 40.1428 3360 -40.1428 3840 -40.1428 C 4320 -40.1428 4800 40.1428 5280 40.1428" transform="matrix(1,0,0,1,-952.319580078125,0)" style="fill:none;stroke:rgb(40, 172, 209);transform:matrix(1, 0, 0, 1, -952.32, 0);;animation:none"></path></g>
<g transform="matrix(0.9659258262890683,0.25881904510252074,-0.25881904510252074,0.9659258262890683,152.93265321261526,447.39119968718285)" style="transform:matrix(0.965926, 0.258819, -0.258819, 0.965926, 152.933, 447.391);;animation:none"><path stroke-width="2" stroke-opacity="0.4090909090909091" stroke="rgb(40, 174, 207)" fill="none" d="M -480 42.2196 C 0 42.2196 480 -42.2196 960 -42.2196 C 1440 -42.2196 1920 42.2196 2400 42.2196 C 2880 42.2196 3360 -42.2196 3840 -42.2196 C 4320 -42.2196 4800 42.2196 5280 42.2196" transform="matrix(1,0,0,1,-967.6799926757812,0)" style="fill:none;stroke:rgb(40, 174, 207);transform:matrix(1, 0, 0, 1, -967.68, 0);;animation:none"></path></g>
<g transform="matrix(0.9659258262890683,0.25881904510252074,-0.25881904510252074,0.9659258262890683,152.93265321261526,18.811167338550035)" style="transform:matrix(0.965926, 0.258819, -0.258819, 0.965926, 152.933, 18.8112);;animation:none"><path stroke-width="2" stroke-opacity="0.4318181818181818" stroke="rgb(40, 176, 205)" fill="none" d="M -480 44.2092 C 0 44.2092 480 -44.2092 960 -44.2092 C 1440 -44.2092 1920 44.2092 2400 44.2092 C 2880 44.2092 3360 -44.2092 3840 -44.2092 C 4320 -44.2092 4800 44.2092 5280 44.2092" transform="matrix(1,0,0,1,-983.0397338867188,0)" style="fill:none;stroke:rgb(40, 176, 205);transform:matrix(1, 0, 0, 1, -983.04, 0);;animation:none"></path></g>
<g transform="matrix(0.9659258262890683,0.25881904510252074,-0.25881904510252074,0.9659258262890683,152.93265321261526,442.4311777145266)" style="transform:matrix(0.965926, 0.258819, -0.258819, 0.965926, 152.933, 442.431);;animation:none"><path stroke-width="2" stroke-opacity="0.45454545454545453" stroke="rgb(39, 179, 202)" fill="none" d="M -480 46.1115 C 0 46.1115 480 -46.1115 960 -46.1115 C 1440 -46.1115 1920 46.1115 2400 46.1115 C 2880 46.1115 3360 -46.1115 3840 -46.1115 C 4320 -46.1115 4800 46.1115 5280 46.1115" transform="matrix(1,0,0,1,-998.3995361328125,0)" style="fill:none;stroke:rgb(39, 179, 202);transform:matrix(1, 0, 0, 1, -998.4, 0);;animation:none"></path></g>
<g transform="matrix(0.9659258262890683,0.25881904510252074,-0.25881904510252074,0.9659258262890683,152.93265321261526,23.761164286792223)" style="transform:matrix(0.965926, 0.258819, -0.258819, 0.965926, 152.933, 23.7612);;animation:none"><path stroke-width="2" stroke-opacity="0.4772727272727273" stroke="rgb(39, 181, 200)" fill="none" d="M -480 47.9269 C 0 47.9269 480 -47.9269 960 -47.9269 C 1440 -47.9269 1920 47.9269 2400 47.9269 C 2880 47.9269 3360 -47.9269 3840 -47.9269 C 4320 -47.9269 4800 47.9269 5280 47.9269" transform="matrix(1,0,0,1,-1013.760009765625,0)" style="fill:none;stroke:rgb(39, 181, 200);transform:matrix(1, 0, 0, 1, -1013.76, 0);;animation:none"></path></g>
<g transform="matrix(0.9659258262890683,0.25881904510252074,-0.25881904510252074,0.9659258262890683,152.93265321261526,437.48116550749535)" style="transform:matrix(0.965926, 0.258819, -0.258819, 0.965926, 152.933, 437.481);;animation:none"><path stroke-width="2" stroke-opacity="0.5" stroke="rgb(39, 184, 197)" fill="none" d="M -480 49.656 C 0 49.656 480 -49.656 960 -49.656 C 1440 -49.656 1920 49.656 2400 49.656 C 2880 49.656 3360 -49.656 3840 -49.656 C 4320 -49.656 4800 49.656 5280 49.656" transform="matrix(1,0,0,1,-1029.1197509765625,0)" style="fill:none;stroke:rgb(39, 184, 197);transform:matrix(1, 0, 0, 1, -1029.12, 0);;animation:none"></path></g>
<g transform="matrix(0.9659258262890683,0.25881904510252074,-0.25881904510252074,0.9659258262890683,152.93265321261526,28.721155741870348)" style="transform:matrix(0.965926, 0.258819, -0.258819, 0.965926, 152.933, 28.7212);;animation:none"><path stroke-width="2" stroke-opacity="0.5227272727272727" stroke="rgb(38, 187, 194)" fill="none" d="M -480 51.2997 C 0 51.2997 480 -51.2997 960 -51.2997 C 1440 -51.2997 1920 51.2997 2400 51.2997 C 2880 51.2997 3360 -51.2997 3840 -51.2997 C 4320 -51.2997 4800 51.2997 5280 51.2997" transform="matrix(1,0,0,1,-1044.4794921875,0)" style="fill:none;stroke:rgb(38, 187, 194);transform:matrix(1, 0, 0, 1, -1044.48, 0);;animation:none"></path></g>
<g transform="matrix(0.9659258262890683,0.25881904510252074,-0.25881904510252074,0.9659258262890683,152.93265321261526,432.5211435348391)" style="transform:matrix(0.965926, 0.258819, -0.258819, 0.965926, 152.933, 432.521);;animation:none"><path stroke-width="2" stroke-opacity="0.5454545454545454" stroke="rgb(38, 190, 191)" fill="none" d="M -480 52.8594 C 0 52.8594 480 -52.8594 960 -52.8594 C 1440 -52.8594 1920 52.8594 2400 52.8594 C 2880 52.8594 3360 -52.8594 3840 -52.8594 C 4320 -52.8594 4800 52.8594 5280 52.8594" transform="matrix(1,0,0,1,-1059.8399658203125,0)" style="fill:none;stroke:rgb(38, 190, 191);transform:matrix(1, 0, 0, 1, -1059.84, 0);;animation:none"></path></g>
<g transform="matrix(0.9659258262890683,0.25881904510252074,-0.25881904510252074,0.9659258262890683,152.93265321261526,33.6711679489016)" style="transform:matrix(0.965926, 0.258819, -0.258819, 0.965926, 152.933, 33.6712);;animation:none"><path stroke-width="2" stroke-opacity="0.5681818181818182" stroke="rgb(38, 193, 188)" fill="none" d="M -480 54.3362 C 0 54.3362 480 -54.3362 960 -54.3362 C 1440 -54.3362 1920 54.3362 2400 54.3362 C 2880 54.3362 3360 -54.3362 3840 -54.3362 C 4320 -54.3362 4800 54.3362 5280 54.3362" transform="matrix(1,0,0,1,-1075.19970703125,0)" style="fill:none;stroke:rgb(38, 193, 188);transform:matrix(1, 0, 0, 1, -1075.2, 0);;animation:none"></path></g>
<g transform="matrix(0.9659258262890683,0.25881904510252074,-0.25881904510252074,0.9659258262890683,152.93265321261526,427.5711923629641)" style="transform:matrix(0.965926, 0.258819, -0.258819, 0.965926, 152.933, 427.571);;animation:none"><path stroke-width="2" stroke-opacity="0.5909090909090909" stroke="rgb(37, 196, 185)" fill="none" d="M -480 55.7317 C 0 55.7317 480 -55.7317 960 -55.7317 C 1440 -55.7317 1920 55.7317 2400 55.7317 C 2880 55.7317 3360 -55.7317 3840 -55.7317 C 4320 -55.7317 4800 55.7317 5280 55.7317" transform="matrix(1,0,0,1,-1090.5594482421875,0)" style="fill:none;stroke:rgb(37, 196, 185);transform:matrix(1, 0, 0, 1, -1090.56, 0);;animation:none"></path></g>
<g transform="matrix(0.9659258262890683,0.25881904510252074,-0.25881904510252074,0.9659258262890683,152.93265321261526,38.63115940397972)" style="transform:matrix(0.965926, 0.258819, -0.258819, 0.965926, 152.933, 38.6312);;animation:none"><path stroke-width="2" stroke-opacity="0.6136363636363636" stroke="rgb(37, 198, 183)" fill="none" d="M -480 57.0476 C 0 57.0476 480 -57.0476 960 -57.0476 C 1440 -57.0476 1920 57.0476 2400 57.0476 C 2880 57.0476 3360 -57.0476 3840 -57.0476 C 4320 -57.0476 4800 57.0476 5280 57.0476" transform="matrix(1,0,0,1,-1105.9200439453125,0)" style="fill:none;stroke:rgb(37, 198, 183);transform:matrix(1, 0, 0, 1, -1105.92, 0);;animation:none"></path></g>
<g transform="matrix(0.9659258262890683,0.25881904510252074,-0.25881904510252074,0.9659258262890683,152.93265321261526,422.61117039030785)" style="transform:matrix(0.965926, 0.258819, -0.258819, 0.965926, 152.933, 422.611);;animation:none"><path stroke-width="2" stroke-opacity="0.6363636363636364" stroke="rgb(36, 201, 180)" fill="none" d="M -480 58.2856 C 0 58.2856 480 -58.2856 960 -58.2856 C 1440 -58.2856 1920 58.2856 2400 58.2856 C 2880 58.2856 3360 -58.2856 3840 -58.2856 C 4320 -58.2856 4800 58.2856 5280 58.2856" transform="matrix(1,0,0,1,-1121.27978515625,0)" style="fill:none;stroke:rgb(36, 201, 180);transform:matrix(1, 0, 0, 1, -1121.28, 0);;animation:none"></path></g>
<g transform="matrix(0.9659258262890683,0.25881904510252074,-0.25881904510252074,0.9659258262890683,152.93265321261526,43.58117161101097)" style="transform:matrix(0.965926, 0.258819, -0.258819, 0.965926, 152.933, 43.5811);;animation:none"><path stroke-width="2" stroke-opacity="0.6590909090909091" stroke="rgb(36, 204, 177)" fill="none" d="M -480 59.4475 C 0 59.4475 480 -59.4475 960 -59.4475 C 1440 -59.4475 1920 59.4475 2400 59.4475 C 2880 59.4475 3360 -59.4475 3840 -59.4475 C 4320 -59.4475 4800 59.4475 5280 59.4475" transform="matrix(1,0,0,1,-1136.6395263671875,0)" style="fill:none;stroke:rgb(36, 204, 177);transform:matrix(1, 0, 0, 1, -1136.64, 0);;animation:none"></path></g>
<g></g></g><!-- [ldio] generated by https://loading.io --></svg>